<?xml version="1.0" encoding="UTF-8" standalone="no"?>
<!DOCTYPE svg PUBLIC "-//W3C//DTD SVG 1.1//EN" "http://www.w3.org/Graphics/SVG/1.1/DTD/svg11.dtd">
<svg width="100%" height="100%" viewBox="0 0 500 500" version="1.1" xmlns="http://www.w3.org/2000/svg" xmlns:xlink="http://www.w3.org/1999/xlink" xml:space="preserve" xmlns:serif="http://www.serif.com/" style="fill-rule:evenodd;clip-rule:evenodd;stroke-linecap:round;stroke-linejoin:round;stroke-miterlimit:2;">
    <g>
        <path d="M273.956,58.466C293.504,58.932 313.052,69.084 322.925,85.963C332.799,102.841 331.553,126.111 318.422,140.6C309.923,149.979 297.522,155.107 285.018,157.06C256.971,161.44 227.773,145.232 221.703,116.46C214.93,84.36 242.647,57.719 273.956,58.466Z" style="fill:none;stroke:rgb(69,50,72);stroke-width:2px;"/>
        <path d="M268.985,63.353C266.253,64.172 263.52,64.992 260.788,65.812C259.209,66.286 257.2,66.56 255.731,67.294C253.556,68.381 252.432,71.213 251.12,73.298C250.225,74.721 249.383,76.743 250.599,77.904C251.855,79.104 254.036,78.083 255.62,78.797C256.816,79.335 257.405,80.743 258.549,81.382C259.617,81.978 260.959,81.787 262.099,81.344C263.238,80.9 264.284,80.228 265.451,79.862C266.666,79.482 268.331,79.673 268.738,80.879C268.994,81.637 268.624,82.445 268.479,83.232C268.175,84.885 268.982,86.687 270.42,87.559C265.345,89.37 261.354,88.274 256.294,87.698C254.821,87.53 251.309,87.88 250.475,89.548C250.45,89.597 248.729,93.04 248.729,93.04C248.729,93.04 251.522,101.072 251.173,102.469C250.824,103.866 248.379,105.612 251.522,105.961C253.741,106.208 255.692,107.284 257.834,107.679C260.334,108.14 262.095,106.732 264.409,106.114C267.027,105.414 269.887,106.58 271.783,108.515C273.421,110.187 274.304,112.257 275.116,114.409C275.416,115.204 277.155,117.899 277.019,118.535L275.508,125.52C275.508,125.52 272.129,130.41 271.779,131.807C271.43,133.204 272.478,137.045 272.478,137.045L281.559,137.045L292.734,119.932L290.639,110.502L292.734,104.564C292.734,104.564 301.117,102.818 302.863,102.12C304.609,101.421 305.657,102.12 307.403,102.12C312.746,102.12 318.099,96.5 317.602,91.06C317.265,87.376 315.102,84.127 312.776,81.251C307.732,75.012 301.431,68.263 293.488,66.235C288.813,65.041 284.138,63.848 279.463,62.654L268.985,63.353Z" style="fill:none;stroke:rgb(69,50,72);stroke-width:1px;"/>
        <path d="M234.251,92.364C234.159,93.129 234.061,93.835 234.06,94.298C234.054,96.44 234.06,98.581 234.06,100.723C235.812,102.666 239.706,105.531 240.455,108.018C240.957,109.684 240.224,112.784 240.219,114.598C240.211,117.846 239.739,121.124 240.463,124.333C241.104,127.171 242.627,129.718 244.128,132.21C247.133,137.201 250.432,142.464 255.701,144.947C257.717,145.897 259.932,146.386 261.915,147.4C263.9,148.415 265.728,150.159 265.955,152.376C258.478,150.464 251.08,147.88 244.616,143.665C238.151,139.449 232.641,133.475 230.009,126.219C228.754,122.76 228.173,119.092 227.822,115.429C227.378,110.808 227.352,106.109 228.073,101.514C228.427,99.255 228.961,97.019 229.736,94.865C230.191,93.601 231.603,88.992 232.961,88.503C234.707,87.875 234.497,90.328 234.251,92.364Z" style="fill:none;stroke:rgb(69,50,72);stroke-width:1px;"/>
        <path d="M317.696,114.725C317.648,113.436 317.469,107.077 316.103,106.499C314.812,105.954 311.243,111.467 310.378,112.521C309.779,113.25 309.172,113.996 308.835,114.876C307.897,117.324 308.442,120.876 307.772,123.565C305.936,130.949 302.727,137.921 297.18,143.259C304.68,141.076 311.181,135.669 314.695,128.694C316.862,124.394 317.873,119.536 317.696,114.725Z" style="fill:none;stroke:rgb(69,50,72);stroke-width:1px;"/>
        <path d="M113.137,106.826C116.24,115.902 114.367,126.237 109.483,134.331C104.85,142.01 94.391,146.889 85.807,147.805C70.864,149.4 55.895,141.094 52.681,125.902C50.549,115.827 53.24,104.786 59.972,96.992C75.218,79.338 105.463,84.383 113.137,106.826Z" style="fill:none;stroke:rgb(69,50,72);stroke-width:2px;"/>
        <path d="M75.044,142.578C74.379,143.824 74.844,145.549 76.045,146.293C77.246,147.038 78.998,146.686 79.818,145.536C80.638,144.386 80.401,142.615 79.307,141.722C78.213,140.829 76.43,140.95 75.468,141.984" style="fill:none;stroke:rgb(69,50,72);stroke-width:1px;"/>
        <path d="M69.914,131.368C70.12,130.912 70.242,130.412 70.289,129.915C70.715,125.398 67.63,121.387 68.25,116.855C68.524,114.845 69.507,111.611 68.055,109.845C65.734,107.022 61.159,111 60.292,113.314C60.092,113.847 59.923,114.492 59.394,114.702C58.888,114.902 58.304,114.56 58.017,114.097C57.731,113.634 57.654,113.076 57.518,112.549C57.381,112.022 57.147,111.473 56.675,111.201C54.403,109.888 54.879,114.802 54.752,115.811C54.227,119.985 54.606,124.271 55.846,128.29C56.549,130.566 57.528,132.759 58.774,134.791C60.335,137.337 62.353,139.691 64.989,141.095C65.915,141.587 66.939,141.962 67.987,141.916C70.864,141.789 71.763,138.783 69.532,136.967C69.016,136.547 68.386,136.283 67.876,135.856C67.365,135.431 66.972,134.744 67.182,134.112C67.421,133.388 68.277,133.118 68.893,132.667C69.346,132.336 69.683,131.88 69.914,131.368Z" style="fill:none;stroke:rgb(69,50,72);stroke-width:1px;"/>
        <path d="M110.504,110.929C112.575,117.932 111.701,125.755 108.136,132.128C104.571,138.501 98.534,142.004 91.483,143.904C89.567,144.42 87.309,146.053 85.462,145.327C83.615,144.602 82.169,142.555 82.722,140.649C83.133,139.232 84.473,138.292 85.817,137.681C87.161,137.07 88.622,136.654 89.781,135.739C90.939,134.824 91.721,133.188 91.089,131.855C90.629,130.885 89.521,130.255 89.329,129.2C89.02,127.502 91.116,126.523 92.713,125.869C95.329,124.797 97.639,122.988 99.307,120.705C100.461,119.126 101.322,117.036 100.535,115.246C99.667,113.272 97.283,112.591 95.257,111.852C93.231,111.113 90.992,109.546 91.27,107.408C91.497,105.666 93.38,104.383 93.309,102.627C93.183,99.525 88.408,99.681 87.091,97.274C86.285,95.799 86.321,93.753 87.593,92.539C90.415,89.845 96.96,90.677 100.042,92.931C104.971,96.536 108.826,105.252 110.504,110.929Z" style="fill:none;stroke:rgb(69,50,72);stroke-width:1px;"/>
        <path d="M83.82,95.486C84.032,97.631 81.994,99.438 79.885,99.883C77.775,100.328 75.601,99.816 73.461,99.559C71.321,99.301 68.952,99.367 67.285,100.732C66.106,101.698 65.473,103.16 64.852,104.552C64.231,105.944 63.527,107.389 62.272,108.254C61.018,109.12 59.047,109.137 58.168,107.892C57.311,106.678 57.859,104.995 58.562,103.686C61.078,98.999 65.385,95.366 70.327,93.452C73.398,92.262 83.27,89.938 83.82,95.486Z" style="fill:none;stroke:rgb(69,50,72);stroke-width:1px;"/>
        <path d="M82.456,124.889C84.061,124.174 85.343,122.875 86.362,121.444C89.037,117.685 90.078,112.803 89.169,108.28C88.844,106.663 88.264,105.063 87.225,103.783C86.186,102.503 84.64,101.573 82.991,101.537C68.358,101.212 72.592,129.275 82.456,124.889Z" style="fill:none;stroke:rgb(69,50,72);stroke-width:1px;"/>
        <path d="M75.03,128.978C75.813,127.907 76.78,126.803 78.092,126.613C79.148,126.459 80.181,126.938 81.14,127.404C82.311,127.973 83.579,128.642 84.067,129.848C85.634,133.718 79.717,139.612 75.959,139.666C69.878,139.755 73.058,131.676 75.03,128.978Z" style="fill:none;stroke:rgb(69,50,72);stroke-width:1px;"/>
        <path d="M396.21,254.267C396.21,280.335 370.319,301.467 338.382,301.467C306.444,301.467 280.554,280.335 280.554,254.267C280.554,228.198 306.444,207.066 338.382,207.066C370.319,207.066 396.21,228.198 396.21,254.267Z" style="fill:none;stroke:rgb(69,50,72);stroke-width:2px;"/>
        <path d="M382.244,223.526C381.021,222.365 379.732,221.254 378.379,220.195L298.385,220.195C296.426,221.728 294.601,223.37 292.921,225.113L382.244,223.526Z" style="fill:none;stroke:rgb(69,50,72);stroke-width:1px;"/>
        <path d="M285.371,235.401L390.873,234.464C390.569,233.929 390.253,233.4 389.925,232.875L286.838,232.875C286.32,233.705 285.829,234.545 285.371,235.401Z" style="fill:none;stroke:rgb(69,50,72);stroke-width:1px;"/>
        <path d="M316.95,210.428C311.62,212.166 306.683,214.529 302.272,217.412L371.534,215.603C367.91,213.529 363.982,211.788 359.813,210.428L316.95,210.428Z" style="fill:none;stroke:rgb(69,50,72);stroke-width:1px;"/>
        <path d="M290.348,227.98C289.501,229.009 288.711,230.072 287.963,231.157L388.8,231.157C387.638,229.472 386.358,227.848 384.96,226.299L290.348,227.98Z" style="fill:none;stroke:rgb(69,50,72);stroke-width:1px;"/>
        <path d="M384.228,283.02L292.536,283.02C294.159,284.742 295.919,286.37 297.811,287.892L380.701,286.419C381.94,285.333 383.116,284.199 384.228,283.02Z" style="fill:none;stroke:rgb(69,50,72);stroke-width:1px;"/>
        <path d="M394.504,265.656C394.658,265.147 394.805,264.635 394.938,264.12L281.825,264.12C282.047,264.973 282.301,265.815 282.579,266.65L394.504,265.656Z" style="fill:none;stroke:rgb(69,50,72);stroke-width:1px;"/>
        <path d="M378.379,288.338L298.385,288.338C301.622,290.87 305.216,293.099 309.104,294.966L370.801,293.355C373.502,291.859 376.03,290.175 378.379,288.338Z" style="fill:none;stroke:rgb(69,50,72);stroke-width:1px;"/>
        <path d="M286.149,274.538C286.775,275.61 287.459,276.655 288.179,277.681L388.585,277.681C389.72,276.063 390.754,274.394 391.651,272.663L286.149,274.538Z" style="fill:none;stroke:rgb(69,50,72);stroke-width:1px;"/>
        <path d="M396.901,253.17L396.901,254.073C410.533,255.099 418.941,256.869 419.032,259.177C419.223,264.002 383.102,269.346 338.353,271.112C293.604,272.879 257.174,270.4 256.983,265.576C256.888,263.146 266.009,260.587 280.792,258.418L280.792,257.602C250.142,260.871 229.819,265.351 229.984,269.536C230.239,275.976 278.86,279.284 338.583,276.926C398.305,274.567 446.514,267.436 446.26,260.996C446.099,256.912 426.474,254.088 396.901,253.17Z" style="fill:none;fill-rule:nonzero;"/>
        <path d="M396.901,253.17L396.901,254.073C410.533,255.099 418.941,256.869 419.032,259.177C419.223,264.002 383.102,269.346 338.353,271.112C293.604,272.879 257.174,270.4 256.983,265.576C256.888,263.146 266.009,260.587 280.792,258.418L280.792,257.602C250.142,260.871 229.819,265.351 229.984,269.536C230.239,275.976 278.86,279.284 338.583,276.926C398.305,274.567 446.514,267.436 446.26,260.996C446.099,256.912 426.474,254.088 396.901,253.17Z" style="fill:none;stroke:rgb(69,50,72);stroke-width:1px;"/>
        <path d="M76.661,368.545C76.661,339.741 104.064,316.391 132.868,316.391C161.673,316.391 189.075,339.741 189.075,368.545C189.075,397.35 161.673,420.7 132.868,420.7C104.064,420.7 76.661,397.35 76.661,368.545Z" style="fill:none;stroke:rgb(69,50,72);stroke-width:2px;"/>
        <path d="M101.377,347.878C103.268,348.395 105.142,348.805 106.84,349.178C121.496,352.404 136.614,353.501 151.585,352.478C159.278,351.953 166.933,350.868 174.468,349.226C178.951,348.248 179.992,348.195 177.729,343.793C176.055,340.534 173.824,337.561 171.46,334.773C171.156,334.416 164.724,337.018 163.975,337.267C161.376,338.135 158.779,339.004 156.181,339.874C145.543,343.441 134.53,346.252 123.296,346.96C117.658,347.315 111.976,347.132 106.396,346.222C103.713,345.784 91.968,341.136 90.63,342.386C93.263,345.184 97.357,346.777 101.377,347.878Z" style="fill:none;stroke:rgb(69,50,72);stroke-width:1px;"/>
        <path d="M126.427,321.961C135.585,321.754 144.786,324.58 152.248,329.892C139.261,328.134 126.448,331.938 113.728,333.947C111.566,334.289 99.8,336.986 98.788,334.247C97.882,331.794 105.334,328.043 106.831,327.227C112.826,323.958 119.596,322.116 126.427,321.961Z" style="fill:none;stroke:rgb(69,50,72);stroke-width:1px;"/>
        <path d="M133.811,417.475C124.653,417.682 115.453,414.855 107.991,409.544C120.978,411.302 133.791,407.497 146.511,405.487C148.672,405.146 160.438,402.449 161.45,405.188C162.355,407.642 154.904,411.393 153.408,412.208C147.412,415.478 140.642,417.319 133.811,417.475Z" style="fill:none;stroke:rgb(69,50,72);stroke-width:1px;"/>
        <path d="M182.935,378.296C179.864,381.863 175.465,384.565 171.634,386.853C161.99,392.612 151.134,396.204 140.083,398.044C129.127,399.867 117.756,400.487 106.515,400.043C95.108,399.592 85.11,392.191 81.563,381.342C78.969,373.406 78.414,364.798 80.21,356.64C95.555,362.982 112.018,368.873 128.254,372.347C138.689,374.579 149.471,375.567 160.116,374.538C165.406,374.027 170.885,373.131 175.911,371.351C179.413,370.109 181.758,367.585 184.437,365.118C187.691,362.125 187.378,369.084 186.948,370.639C186.2,373.343 184.771,376.162 182.935,378.296Z" style="fill:none;stroke:rgb(69,50,72);stroke-width:1px;"/>
        <path d="M196.33,121.926C196.33,139.469 179.585,151.211 162.042,151.211C144.5,151.211 128.285,139.469 128.285,121.926C128.285,104.384 144.119,86.473 161.661,86.473C179.204,86.473 196.33,104.384 196.33,121.926Z" style="fill:none;stroke:rgb(69,50,72);stroke-width:2px;"/>
        <path d="M185.884,98.491C185.791,99.134 185.688,99.802 185.323,100.339C184.958,100.876 184.249,101.24 183.645,100.998C183.068,100.766 182.812,100.114 182.516,99.567C181.914,98.453 180.761,97.51 179.5,97.629C178.615,97.712 177.866,98.286 177.116,98.762C176.365,99.239 175.453,99.648 174.61,99.367C173.937,99.143 173.446,98.46 173.446,97.752C173.447,96.896 174.077,96.163 174.214,95.318C174.423,94.032 173.479,92.874 172.598,91.915C172.24,91.524 172.016,90.941 172.147,90.428C172.277,89.915 172.726,89.498 173.247,89.405" style="fill:none;stroke:rgb(69,50,72);stroke-width:1px;"/>
        <path d="M189.43,103.137C188.522,106.411 191.332,109.787 190.676,113.12C190.417,114.437 189.639,115.587 189.173,116.846C188.707,118.105 188.625,119.687 189.582,120.629C190.748,121.78 192.959,121.495 193.861,122.862C194.417,123.705 194.215,124.81 194.143,125.818C194.071,126.825 194.295,128.052 195.234,128.425" style="fill:none;stroke:rgb(69,50,72);stroke-width:1px;"/>
        <path d="M165.907,87.313C166.828,89.533 165.286,92.108 163.245,93.379C161.205,94.649 158.756,95.04 156.495,95.855C153.499,96.935 150.79,98.798 148.709,101.208C147.511,102.597 146.495,104.226 146.245,106.043C145.995,107.861 146.65,109.884 148.192,110.878C150.139,112.135 152.783,111.416 154.708,110.127C156.634,108.839 158.201,107.04 160.228,105.917C161.42,105.258 162.991,104.884 164.084,105.697C165.452,106.715 165.165,108.892 164.273,110.346C161.508,114.855 155.237,115.791 151.591,119.624C150.64,120.624 149.855,121.927 149.979,123.302C150.104,124.677 151.482,125.961 152.804,125.562C153.804,125.26 154.519,124.137 155.562,124.185C156.726,124.238 157.249,125.642 157.484,126.783C157.741,128.03 157.99,129.369 157.492,130.541C156.904,131.924 155.422,132.705 153.978,133.121C151.341,133.881 148.3,133.72 146.109,132.068C143.457,130.069 142.486,126.305 139.648,124.58C136.433,122.626 131.844,123.935 128.909,121.581" style="fill:none;stroke:rgb(69,50,72);stroke-width:1px;"/>
        <path d="M166.214,94.001C165.039,95.787 163.221,97.313 161.179,97.998C159.083,98.702 156.921,98.808 155.137,100.283C154.445,100.855 153.845,101.697 153.988,102.583C154.23,104.079 156.303,104.465 157.715,103.916C159.533,103.21 160.967,101.609 162.882,101.24C165.341,100.765 167.846,102.669 168.572,105.066C169.298,107.464 168.528,110.12 167.1,112.178C165.672,114.236 163.651,115.799 161.628,117.276C160.544,118.067 159.422,118.873 158.702,120.004C157.98,121.136 157.752,122.694 158.516,123.797C159.226,124.821 160.657,125.194 161.856,124.856C163.056,124.518 164.02,123.576 164.617,122.481C165.479,120.899 165.963,118.706 167.719,118.298C169.773,117.821 171.77,120.386 173.732,119.614C174.609,119.27 175.129,118.319 175.233,117.382C175.337,116.446 175.101,115.508 174.867,114.595C172.888,106.886 169.688,98.906 170.425,90.84C170.514,89.867 170.651,88.351 169.845,87.631C169.359,87.197 168.613,87.08 168.018,87.345C167.537,89.715 167.607,91.886 166.214,94.001Z" style="fill:none;stroke:rgb(69,50,72);stroke-width:1px;"/>
        <path d="M129.822,129.903C133.109,128.554 137.27,129.856 139.201,132.839C140.285,134.514 140.692,136.564 141.835,138.2C143.605,140.732 147.159,141.846 150.058,140.776C151.774,140.143 153.17,138.875 154.496,137.615C155.823,136.355 157.164,135.046 158.832,134.295C160.5,133.544 162.601,133.46 164.048,134.579C165.214,135.48 165.761,137.012 165.782,138.486C165.803,139.96 165.364,141.4 164.873,142.79C163.806,145.808 162.468,148.729 160.881,151.509" style="fill:none;stroke:rgb(69,50,72);stroke-width:1px;"/>
        <path d="M164.249,151.158C165.263,150.276 165.484,148.821 165.919,147.549C166.354,146.277 167.378,144.928 168.712,145.098C169.288,145.171 169.807,145.529 170.387,145.554C171.798,145.616 172.482,143.894 172.835,142.527C173.57,139.684 174.667,136.878 176.523,134.604C178.38,132.329 181.08,130.629 184.011,130.458C186.209,130.329 188.359,131.043 190.445,131.749C191.562,132.126 192.678,132.504 193.794,132.881" style="fill:none;stroke:rgb(69,50,72);stroke-width:1px;"/>
        <path d="M177.28,120.228C177,121.192 176.619,122.156 175.939,122.895C175.259,123.633 174.229,124.113 173.245,123.916C172.207,123.708 171.384,122.807 170.331,122.707C169.158,122.595 168.1,123.561 167.703,124.67C167.306,125.779 167.415,126.996 167.529,128.168C167.636,129.273 167.752,130.408 168.257,131.396C168.763,132.384 169.755,133.206 170.865,133.172C172.024,133.136 172.961,132.215 173.597,131.246C174.233,130.277 174.717,129.178 175.583,128.408C177.159,127.008 179.497,127.076 181.6,126.939C183.703,126.802 186.158,126.071 186.791,124.061C187.5,121.812 185.472,119.698 184.855,117.422C184.354,115.573 184.81,113.621 185.045,111.719C185.281,109.817 185.221,107.684 183.937,106.261C182.607,104.788 180.408,104.551 178.423,104.539C177.273,104.532 175.45,104.779 175.286,106.241C175.162,107.339 176.479,108.671 176.875,109.649C178.207,112.929 178.26,116.854 177.28,120.228Z" style="fill:none;stroke:rgb(69,50,72);stroke-width:1px;"/>
        <path d="M439.476,122.354C439.476,145.641 420.598,164.519 397.311,164.519C374.024,164.519 355.147,145.641 355.147,122.354C355.147,99.068 374.024,80.191 397.311,80.191C420.598,80.191 439.476,99.068 439.476,122.354Z" style="fill:none;stroke:rgb(69,50,72);stroke-width:2px;"/>
        <path d="M391.053,161.518C407.023,163.636 422.208,155.252 429.52,141.213C430.621,139.101 431.346,136.738 431.21,134.361C426.022,141.006 417.968,148.481 408.919,146.297C405.283,145.419 401.872,143.708 398.19,143.044C394.251,142.335 390.201,142.86 386.206,142.624C380.877,142.308 376.269,139.67 371.463,137.637C368.772,136.499 365.517,136.682 363.307,134.742C361.452,133.114 357.586,128.842 357.243,126.319C359.663,144.114 372.91,159.111 391.053,161.518Z" style="fill:none;stroke:rgb(69,50,72);stroke-width:1px;"/>
        <path d="M371.021,116.096C375.749,116.782 380.615,117.462 385.261,116.347C390.595,115.066 395.258,111.498 400.698,110.795C407.708,109.889 414.477,113.897 421.543,114.021C425.319,114.086 429.652,112.498 430.75,108.884C431.364,106.863 430.811,104.677 430.06,102.703C425.565,90.898 413.676,82.546 401.097,81.389C389.574,80.33 377.924,85.339 370.181,93.813C362.765,101.93 354.488,113.7 371.021,116.096Z" style="fill:none;stroke:rgb(69,50,72);stroke-width:1px;"/>
        <path d="M426.771,120.346C422.682,121.117 418.474,120.646 414.313,120.744C406.687,120.923 399.256,123.01 391.783,124.543C384.311,126.077 376.477,127.052 369.12,125.033C381.609,130.533 396.021,126.604 409.645,127.389C414.009,127.641 418.353,128.387 422.72,128.217C427.086,128.046 431.622,126.831 434.721,123.749C437.702,120.784 439.582,113.871 437.075,110.205C437.359,114.945 430.608,119.622 426.771,120.346Z" style="fill:none;stroke:rgb(69,50,72);stroke-width:1px;"/>
        <path d="M377.397,92.341C380.37,92.266 383.199,93.479 386.049,94.33C395.717,97.216 406.576,95.842 415.221,90.639C412.505,95.723 406.161,97.571 400.422,98.112C393.792,98.736 387.585,97.876 381.086,96.847C377.898,96.342 374.524,97.112 371.746,98.739C369.977,99.776 368.395,101.099 366.824,102.416C368.725,98.159 372.056,92.341 377.397,92.341Z" style="fill:none;stroke:rgb(69,50,72);stroke-width:1px;"/>
        <path d="M388.78,158.493C393.607,159.403 398.573,158.993 403.468,158.579C405.414,158.415 407.567,158.149 408.843,156.67C407.717,157.228 406.378,157.151 405.155,156.861C403.933,156.571 402.761,156.083 401.528,155.843C399.328,155.415 397.064,155.796 394.826,155.924C387.24,156.359 379.522,153.734 373.776,148.763C375.946,150.716 377.804,153.104 380.143,154.853C382.667,156.739 385.697,157.912 388.78,158.493Z" style="fill:none;stroke:rgb(69,50,72);stroke-width:1px;"/>
        <path d="M367.22,121.33C368.146,120.893 368.676,119.631 368.121,118.77C367.308,117.506 363.296,115.496 362.97,118.024C362.687,120.208 365.118,122.324 367.22,121.33Z" style="fill:none;stroke:rgb(69,50,72);stroke-width:1px;"/>
        <path d="M390.387,110.061C391.205,109.346 391.995,108.271 391.597,107.26C391.245,106.369 390.162,106.046 389.213,105.918C387.718,105.715 386.174,105.711 384.726,106.133C383.276,106.555 381.927,107.435 381.134,108.718C379.954,110.626 380.147,113.436 382.843,113.358C385.533,113.28 388.401,111.797 390.387,110.061Z" style="fill:none;stroke:rgb(69,50,72);stroke-width:1px;"/>
        <path d="M420.733,135.508C419.879,135.623 419.007,135.604 418.159,135.451C413.904,134.684 416.983,130.004 419.983,130.012C421.297,130.015 422.818,130.822 423.467,131.996C424.537,133.935 422.424,135.279 420.733,135.508Z" style="fill:none;stroke:rgb(69,50,72);stroke-width:1px;"/>
        <path d="M405.846,154.147C406.301,154.134 406.764,154.072 407.169,153.867C407.575,153.662 407.918,153.293 408.001,152.847C408.124,152.192 407.686,151.569 407.215,151.098C406.096,149.977 401.515,147.111 400.598,149.738C399.584,152.645 403.737,154.207 405.846,154.147Z" style="fill:none;stroke:rgb(69,50,72);stroke-width:1px;"/>
        <path d="M402.576,90.055C402.1,90.001 401.577,89.864 401.318,89.459C401.099,89.117 401.134,88.656 401.32,88.295C401.507,87.934 401.823,87.657 402.155,87.423C403.191,86.69 408.097,85.086 408.395,87.438C408.663,89.547 403.891,90.205 402.576,90.055Z" style="fill:none;stroke:rgb(69,50,72);stroke-width:1px;"/>
        <path d="M397.188,86.406C397.736,86.415 398.305,86.351 398.773,86.068C399.241,85.785 399.584,85.24 399.492,84.7C399.422,84.28 399.105,83.934 398.733,83.727C398.361,83.519 397.936,83.432 397.518,83.357C396.476,83.172 393.733,82.813 393.62,84.444C393.51,86.04 396.108,86.389 397.188,86.406Z" style="fill:none;stroke:rgb(69,50,72);stroke-width:1px;"/>
        <path d="M195.253,242.653C195.253,279.148 155.903,302.258 119.408,302.258C82.912,302.258 45.715,284.731 45.715,248.236C45.715,211.741 82.912,170.096 119.408,170.096C155.903,170.096 195.253,206.157 195.253,242.653Z" style="fill:none;stroke:rgb(69,50,72);stroke-width:2px;"/>
        <path d="M163.395,186.256C162.276,185.411 161.139,184.593 159.984,183.803C127.763,188.947 97.589,188.344 77.911,186.923C76.41,188.166 74.942,189.463 73.513,190.809C107.044,193.805 141.762,189.777 163.395,186.256Z" style="fill:none;stroke:rgb(69,50,72);stroke-width:1px;"/>
        <path d="M81.454,295.347C83.36,296.108 85.31,296.808 87.299,297.442C113.478,293.649 138.037,293.55 156.361,294.452C158.962,293.306 161.492,292.041 163.931,290.661C133.114,288.603 101.954,292.098 81.454,295.347Z" style="fill:none;stroke:rgb(69,50,72);stroke-width:1px;"/>
        <path d="M168.565,190.464C167.749,189.749 166.919,189.049 166.078,188.363C141.762,191.66 99.78,196.364 69.896,194.399C69.603,194.707 69.311,195.015 69.021,195.326C88.619,196.503 122.677,196.775 168.565,190.464Z" style="fill:none;stroke:rgb(69,50,72);stroke-width:1px;"/>
        <path d="M177.176,199.102C175.951,197.693 174.678,196.32 173.361,194.986C136.365,201.386 92.037,199.671 66.77,197.836C64.941,199.945 63.2,202.131 61.563,204.384C84.384,208.652 124.543,211.871 177.176,199.102Z" style="fill:none;stroke:rgb(69,50,72);stroke-width:1px;"/>
        <path d="M61.563,204.384C57.918,209.4 54.783,214.738 52.282,220.23C103.183,230.524 160.733,219.604 187.128,213.256C184.375,208.272 181.013,203.515 177.176,199.102C124.543,211.871 84.384,208.652 61.563,204.384Z" style="fill:none;stroke:rgb(69,50,72);stroke-width:1px;"/>
        <path d="M170.438,275.55C169.191,276.873 168.191,278.433 166.812,279.617C156.159,288.76 141.708,273.621 130.154,275.831C125.449,276.731 121.386,279.717 116.754,280.944C110.017,282.73 102.941,280.639 96.198,278.872C83.224,275.473 72.612,279.371 59.955,281.881C64.989,286.752 71.113,290.735 77.935,293.846C114.729,286.583 144.595,287.145 165.632,289.669C172.326,285.665 178.28,280.774 183.062,275.096C180.628,274.628 178.242,274.136 177.778,274.043C174.645,273.421 172.932,272.902 170.438,275.55Z" style="fill:none;stroke:rgb(69,50,72);stroke-width:1px;"/>
        <path d="M188.838,216.545C164.969,223.265 139.329,230.272 111.532,230.221C83.717,230.169 66.011,226.53 50.918,223.4C47.596,231.585 45.715,240.04 45.715,248.236C45.715,257.955 48.372,266.315 52.932,273.371C57.775,273.457 68.295,272.207 69.88,272.113C76.656,271.708 86.334,272.878 91.933,268.919C98.579,264.219 104.316,258.496 113.152,258.977C122.638,259.494 129.726,266.977 138.725,269.073C149.047,271.478 160.955,268.245 170.257,263.708C174.533,261.623 178.565,259.029 182.2,255.957C186.663,252.187 188.863,251.127 194.712,249.926C195.064,247.565 195.253,245.142 195.253,242.653C195.253,233.751 192.908,224.878 188.838,216.545Z" style="fill:none;stroke:rgb(69,50,72);stroke-width:1px;"/>
        <path d="M145.536,264.319C138.118,264.491 130.679,259.733 128.25,252.722C125.819,245.711 129.03,237.036 135.689,233.763C141.128,231.09 147.565,232.07 153.571,231.265C157.228,230.775 160.772,229.607 164.437,229.18C168.102,228.752 172.091,229.172 174.96,231.491C179.058,234.804 179.588,241.187 177.354,245.959C175.12,250.731 170.736,254.138 166.196,256.811C161.402,259.636 156.123,261.889 150.567,262.201C145.012,262.514 139.137,260.645 135.56,256.383C131.982,252.122 131.33,245.322 134.841,241.006C137.991,237.133 143.36,236.055 148.283,235.226C152.281,234.553 156.279,233.88 160.277,233.207C162.254,232.874 164.336,232.549 166.222,233.231C168.929,234.211 170.586,237.175 170.619,240.054C170.652,242.934 169.311,245.683 167.515,247.933C163.152,253.4 155.849,256.366 148.909,255.487C145.165,255.013 141.051,252.855 140.547,249.115C140.157,246.219 142.193,243.432 144.753,242.023C147.313,240.614 150.31,240.289 153.217,239.989C154.79,239.828 156.428,239.673 157.913,240.219C159.397,240.766 160.669,242.237 160.438,243.802C160.107,246.045 157.309,246.814 155.057,247.084" style="fill:none;stroke:rgb(69,50,72);stroke-width:1px;"/>
        <path d="M130.597,245C130.022,247.107 130.062,249.376 130.705,251.463" style="fill:none;stroke:rgb(69,50,72);stroke-width:1px;"/>
        <path d="M137.044,251.075C138.472,254.101 141.357,256.399 144.625,257.113" style="fill:none;stroke:rgb(69,50,72);stroke-width:1px;"/>
        <path d="M139.651,241.928C144.586,239.023 150.11,237.124 155.789,236.383C157.827,236.117 160.006,236.022 161.829,236.973C163.574,237.883 164.782,239.749 164.898,241.714C165.014,243.68 164.033,245.675 162.406,246.784" style="fill:none;stroke:rgb(69,50,72);stroke-width:1px;"/>
        <path d="M150.383,244.797C149.597,245.449 148.799,246.131 148.31,247.029C147.821,247.926 147.702,249.097 148.276,249.942C148.894,250.849 150.097,251.132 151.191,251.211C153.179,251.354 155.196,251.059 157.06,250.353" style="fill:none;stroke:rgb(69,50,72);stroke-width:1px;"/>
        <path d="M153.304,242.973C153.98,242.33 155.312,242.747 155.5,243.661C155.688,244.575 154.631,245.484 153.755,245.161" style="fill:none;stroke:rgb(69,50,72);stroke-width:1px;"/>
        <path d="M164.802,226.973C166.828,226.639 168.9,226.352 170.926,226.685C172.952,227.018 174.956,228.066 175.975,229.848" style="fill:none;stroke:rgb(69,50,72);stroke-width:1px;"/>
        <path d="M65.816,264.161C70.259,267.151 76.104,267.954 81.189,266.273C82.611,265.804 83.998,265.135 85.078,264.097C86.158,263.06 86.906,261.615 86.871,260.117C86.835,258.526 85.92,257.047 84.696,256.029C83.472,255.013 81.961,254.403 80.439,253.937C74.99,252.271 68.493,252.492 64.284,256.333C63.004,257.501 61.972,259.481 62.977,260.892C63.403,261.49 64.102,261.823 64.78,262.106C67.59,263.28 70.581,264.022 73.613,264.3C75.27,264.451 77.015,264.447 78.499,263.696C79.983,262.946 81.104,261.253 80.705,259.637C80.317,258.068 78.729,257.132 77.227,256.535C75.756,255.952 74.225,255.523 72.666,255.258C71.058,254.983 69.193,254.961 68.04,256.115C66.908,257.249 66.94,259.227 67.861,260.537C68.783,261.847 70.396,262.54 71.992,262.687C73.587,262.834 75.185,262.5 76.74,262.115" style="fill:none;stroke:rgb(69,50,72);stroke-width:1px;"/>
        <path d="M72.411,257.999C73.007,257.617 73.814,257.534 74.428,257.887C75.043,258.24 75.379,259.06 75.098,259.71C74.816,260.36 73.888,260.658 73.329,260.223" style="fill:none;stroke:rgb(69,50,72);stroke-width:1px;"/>
        <path d="M80.661,251.275C82.337,251.349 84.067,251.436 85.579,252.162C87.091,252.889 88.343,254.431 88.194,256.103" style="fill:none;stroke:rgb(69,50,72);stroke-width:1px;"/>
        <path d="M82.015,219.418C82.729,218.894 83.378,218.181 83.509,217.305C83.677,216.183 82.935,215.091 81.991,214.46C79.405,212.733 75.784,214.359 75.825,217.617C75.867,220.97 79.957,220.931 82.015,219.418Z" style="fill:none;stroke:rgb(69,50,72);stroke-width:1px;"/>
        <path d="M89.629,222.482C90.176,222.49 90.762,222.381 91.153,221.998C91.655,221.508 91.696,220.692 91.466,220.03C90.836,218.214 88.445,217.665 87.251,219.285C86.021,220.954 88.051,222.46 89.629,222.482Z" style="fill:none;stroke:rgb(69,50,72);stroke-width:1px;"/>
        <path d="M441.144,374.399C441.144,401.268 414.773,423.048 382.244,423.048C349.715,423.048 323.345,401.268 323.345,374.399C323.345,347.532 351.802,322.529 384.331,322.529C416.86,322.529 441.144,347.532 441.144,374.399Z" style="fill:none;stroke:rgb(69,50,72);stroke-width:2px;"/>
        <path d="M433.223,398.754C437.553,392.585 440.284,385.561 440.96,378.061C402.784,386.358 363.227,388.263 324.429,383.681C325.808,389.576 328.473,395.091 332.178,400.02C359.13,418.984 399.366,412.356 433.223,398.754Z" style="fill:none;stroke:rgb(69,50,72);stroke-width:1px;"/>
        <path d="M434.599,350.61C432.24,349.834 429.816,348.965 427.247,347.891C400.886,336.871 367.029,338.951 333.021,347.539C326.942,355.57 323.345,364.864 323.345,374.399C323.345,374.824 323.371,375.243 323.384,375.664C361.107,367.03 399.683,361.164 438.179,358.244C437.205,355.619 436.013,353.064 434.599,350.61Z" style="fill:none;stroke:rgb(69,50,72);stroke-width:1px;"/>
        <path d="M405.86,350.204C407.503,350.314 409.437,350.811 409.978,352.366C410.408,353.607 409.673,355.011 408.6,355.769C407.527,356.525 406.192,356.785 404.901,357.026C399.793,357.982 394.685,358.938 389.576,359.894C384.064,360.925 384.179,355.133 388.152,353.154C393.091,350.695 400.439,349.839 405.86,350.204Z" style="fill:none;stroke:rgb(69,50,72);stroke-width:1px;"/>
        <path d="M249.811,205.826C253.861,202.646 258.191,198.888 262.242,195.708C256.618,196.431 251.386,196.724 245.762,197.447C242.181,190.666 238.803,184.38 235.222,177.599C234.906,185.2 234.02,192.778 232.573,200.248C228.367,202.384 221.308,201.571 215.835,204.761C220.674,207.461 228.416,208.623 233.256,209.093C229.898,216.227 227.193,222.009 226.352,229.848C231.715,225.432 236.346,221.578 239.673,215.371C245.416,217.966 252.362,220.195 258.561,222.654C254.99,215.611 252.488,212.367 249.811,205.826Z" style="fill:none;stroke:rgb(69,50,72);stroke-width:2px;"/>
        <path d="M211.583,187.368C213.55,187.333 215.735,187.187 217.702,187.152C215.822,186.076 214.162,184.959 212.282,183.883C212.754,180.992 213.174,178.299 213.647,175.408C211.798,177.65 209.782,179.754 207.619,181.695C205.846,181.376 203.883,179.501 201.481,179.211C202.332,181.149 204.422,183.288 205.788,184.547C203.121,185.946 200.964,187.083 198.9,189.277C201.552,189.168 203.851,189.062 206.295,187.938C207.446,190.053 209.048,192.333 210.369,194.511C210.905,191.542 210.891,189.978 211.583,187.368Z" style="fill:none;stroke:rgb(69,50,72);stroke-width:1px;"/>
        <path d="M73.762,58.176C77.813,54.996 82.142,51.238 86.193,48.058C80.569,48.781 75.337,49.073 69.713,49.797C66.132,43.015 62.754,36.73 59.173,29.949C58.857,37.55 57.971,45.128 56.524,52.597C52.318,54.734 45.259,53.92 39.786,57.111C44.625,59.811 52.367,60.972 57.208,61.443C53.85,68.577 51.144,74.359 50.303,82.198C55.667,77.782 60.297,73.928 63.624,67.721C69.367,70.316 76.314,72.545 82.512,75.004C78.941,67.96 76.439,64.717 73.762,58.176Z" style="fill:none;stroke:rgb(69,50,72);stroke-width:2px;"/>
        <path d="M43.629,170.451C45.596,170.416 47.781,170.269 49.748,170.234C47.868,169.158 46.207,168.041 44.328,166.965C44.8,164.074 45.22,161.381 45.692,158.49C43.844,160.732 41.827,162.836 39.665,164.777C37.891,164.458 35.929,162.583 33.526,162.293C34.377,164.231 36.468,166.37 37.834,167.629C35.167,169.028 33.009,170.166 30.946,172.359C33.598,172.25 35.897,172.144 38.341,171.02C39.492,173.135 41.094,175.415 42.415,177.593C42.951,174.624 42.937,173.06 43.629,170.451Z" style="fill:none;stroke:rgb(69,50,72);stroke-width:1px;"/>
        <path d="M466.624,393.461C468.591,393.426 470.776,393.279 472.743,393.245C470.863,392.169 469.202,391.052 467.322,389.976C467.795,387.084 468.215,384.392 468.687,381.5C466.839,383.743 464.822,385.847 462.66,387.788C460.887,387.469 458.924,385.594 456.521,385.304C457.373,387.242 459.463,389.38 460.829,390.64C458.162,392.038 456.005,393.176 453.941,395.369C456.593,395.261 458.892,395.154 461.336,394.031C462.487,396.145 464.089,398.426 465.41,400.603C465.946,397.635 465.932,396.07 466.624,393.461Z" style="fill:none;stroke:rgb(69,50,72);stroke-width:1px;"/>
        <path d="M385.977,49.048C387.943,49.013 390.128,48.867 392.095,48.832C390.216,47.756 388.555,46.639 386.675,45.562C387.147,42.671 387.567,39.978 388.04,37.087C386.191,39.33 384.175,41.434 382.013,43.375C380.238,43.056 378.276,41.181 375.874,40.891C376.725,42.829 378.815,44.967 380.181,46.227C377.514,47.625 375.356,48.763 373.294,50.957C375.945,50.848 378.244,50.742 380.688,49.618C381.839,51.732 383.441,54.013 384.762,56.19C385.298,53.222 385.284,51.657 385.977,49.048Z" style="fill:none;stroke:rgb(69,50,72);stroke-width:1px;"/>
        <path d="M183.526,61.918C179.476,58.738 175.146,54.98 171.095,51.8C176.719,52.523 181.951,52.816 187.575,53.539C191.156,46.758 194.534,40.473 198.116,33.691C198.431,41.292 199.317,48.871 200.764,56.34C204.97,58.477 212.029,57.663 217.502,60.853C212.664,63.554 204.922,64.715 200.081,65.186C203.439,72.319 206.144,78.102 206.985,85.94C201.622,81.524 196.992,77.67 193.664,71.463C187.921,74.059 180.975,76.287 174.777,78.746C178.347,71.703 180.849,68.459 183.526,61.918Z" style="fill:none;stroke:rgb(69,50,72);stroke-width:2px;"/>
        <path d="M221.754,43.46C219.787,43.426 217.602,43.279 215.635,43.245C217.515,42.168 219.176,41.051 221.055,39.975C220.583,37.084 220.163,34.391 219.69,31.5C221.539,33.742 223.556,35.846 225.718,37.788C227.492,37.469 229.454,35.594 231.856,35.304C231.005,37.242 228.915,39.38 227.549,40.639C230.216,42.038 232.374,43.175 234.437,45.369C231.785,45.26 229.486,45.154 227.042,44.031C225.891,46.145 224.289,48.425 222.968,50.603C222.432,47.635 222.446,46.07 221.754,43.46Z" style="fill:none;stroke:rgb(69,50,72);stroke-width:1px;"/>
        <path d="M38.491,450.443C34.44,447.263 30.11,443.505 26.06,440.325C31.684,441.049 36.916,441.341 42.54,442.064C46.121,435.282 49.499,428.997 53.08,422.216C53.396,429.817 54.282,437.395 55.729,444.864C59.935,447.001 66.994,446.187 72.466,449.378C67.628,452.078 59.886,453.239 55.045,453.71C58.403,460.844 61.108,466.626 61.95,474.466C56.586,470.049 51.956,466.195 48.629,459.988C42.886,462.583 35.939,464.812 29.741,467.271C33.312,460.228 35.814,456.984 38.491,450.443Z" style="fill:none;stroke:rgb(69,50,72);stroke-width:2px;"/>
        <path d="M76.718,431.985C74.752,431.95 72.566,431.804 70.6,431.77C72.479,430.693 74.14,429.576 76.02,428.5C75.547,425.608 75.127,422.916 74.655,420.024C76.503,422.268 78.52,424.371 80.683,426.312C82.456,425.993 84.419,424.118 86.821,423.828C85.97,425.767 83.879,427.904 82.514,429.164C85.181,430.562 87.338,431.7 89.401,433.894C86.75,433.785 84.451,433.679 82.006,432.556C80.856,434.67 79.253,436.95 77.933,439.128C77.397,436.159 77.411,434.595 76.718,431.985Z" style="fill:none;stroke:rgb(69,50,72);stroke-width:1px;"/>
        <path d="M37.896,385.891C36.349,384.676 34.695,383.24 33.147,382.025C35.295,382.302 37.294,382.414 39.442,382.69C40.81,380.1 42.101,377.699 43.469,375.108C43.589,378.012 43.928,380.906 44.481,383.76C46.087,384.576 48.784,384.266 50.874,385.483C49.026,386.516 46.068,386.959 44.219,387.139C45.502,389.863 46.535,392.072 46.857,395.066C44.808,393.38 43.039,391.907 41.768,389.537C39.575,390.528 36.921,391.379 34.554,392.318C35.918,389.628 36.873,388.39 37.896,385.891Z" style="fill:none;stroke:rgb(69,50,72);stroke-width:1px;"/>
        <path d="M228.384,308.494C232.821,305.88 237.898,303.217 242.336,300.603C239.613,305.577 237.435,310.343 234.712,315.316C239.723,321.122 244.346,326.559 249.356,332.363C242.163,329.889 234.783,327.953 227.3,326.579C223.777,329.718 221.963,336.589 216.999,340.522C216.246,335.033 217.985,327.4 219.311,322.721C211.444,323.249 205.073,323.661 197.466,321.589C203.534,318.203 208.809,315.295 215.802,314.458C215.478,308.164 215.932,300.883 215.9,294.215C221.159,300.105 223.268,303.617 228.384,308.494Z" style="fill:none;stroke:rgb(69,50,72);stroke-width:2px;"/>
        <path d="M231.647,350.818C232.396,349 233.329,347.018 234.077,345.199C234.395,347.342 234.83,349.295 235.147,351.437C238.012,352.051 240.673,352.641 243.538,353.254C240.776,354.158 238.082,355.27 235.486,356.577C235.137,358.345 236.168,360.855 235.563,363.198C234.068,361.7 232.838,358.975 232.163,357.243C229.889,359.218 228.044,360.812 225.249,361.935C226.316,359.505 227.253,357.402 229.189,355.535C227.64,353.693 226.1,351.371 224.553,349.348C227.513,349.93 228.964,350.513 231.647,350.818Z" style="fill:none;stroke:rgb(69,50,72);stroke-width:1px;"/>
        <path d="M448.607,194.241C452.328,197.802 456.27,201.965 459.99,205.526C454.464,204.256 449.286,203.454 443.76,202.185C439.533,208.583 435.557,214.508 431.33,220.908C431.759,213.312 431.617,205.684 430.907,198.108C426.93,195.571 419.825,195.691 414.69,191.981C419.77,189.766 427.588,189.367 432.451,189.372C429.807,181.944 427.68,175.925 427.608,168.041C432.515,172.961 436.746,177.249 439.451,183.751C445.42,181.73 452.552,180.19 458.96,178.349C454.719,185.01 451.911,187.993 448.607,194.241Z" style="fill:none;stroke:rgb(69,50,72);stroke-width:2px;"/>
        <path d="M408.759,208.875C410.713,209.102 412.874,209.461 414.828,209.688C412.852,210.575 411.09,211.524 409.114,212.412C409.302,215.335 409.456,218.057 409.645,220.98C408.023,218.567 406.222,216.277 404.26,214.133C402.464,214.277 400.327,215.952 397.908,216.005C398.944,214.16 401.233,212.236 402.716,211.116C400.198,209.464 398.163,208.121 396.323,205.736C398.952,206.104 401.229,206.434 403.552,207.791C404.904,205.799 406.722,203.686 408.249,201.648C408.492,204.654 408.325,206.21 408.759,208.875Z" style="fill:none;stroke:rgb(69,50,72);stroke-width:1px;"/>
        <path d="M337.73,48.615C339.492,45.963 341.596,43.112 343.356,40.46C343.186,43.961 343.262,47.199 343.091,50.699C347.444,52.574 351.482,54.348 355.836,56.222C351.168,56.789 346.542,57.705 342.011,58.962C340.9,61.658 341.747,65.967 340.049,69.495C338.148,66.646 337.055,61.933 336.527,58.974C332.297,61.392 328.867,63.341 324.078,64.243C326.537,60.723 328.685,57.681 332.346,55.328C330.466,51.916 328.753,47.745 326.935,44.047C331.449,45.902 333.569,47.285 337.73,48.615Z" style="fill:none;stroke:rgb(69,50,72);stroke-width:2px;"/>
        <path d="M350.973,71.264C350.898,70.05 350.882,68.697 350.807,67.483C351.561,68.589 352.331,69.558 353.086,70.663C354.845,70.23 356.483,69.84 358.241,69.407C356.95,70.656 355.752,72.001 354.662,73.429C354.945,74.506 356.196,75.623 356.493,77.089C355.257,76.66 353.837,75.476 352.995,74.696C352.264,76.408 351.668,77.792 350.418,79.171C350.354,77.532 350.308,76.111 350.881,74.55C349.521,73.944 348.038,73.069 346.632,72.361C348.435,71.886 349.399,71.818 350.973,71.264Z" style="fill:none;stroke:rgb(69,50,72);stroke-width:1px;"/>
        <path d="M449.689,296.492C447.929,293.841 445.825,290.989 444.063,288.338C444.234,291.838 444.158,295.076 444.329,298.576C439.976,300.451 435.938,302.225 431.585,304.1C436.253,304.666 440.878,305.582 445.409,306.839C446.52,309.535 445.673,313.845 447.371,317.372C449.271,314.523 450.365,309.811 450.893,306.851C455.123,309.269 458.554,311.219 463.342,312.12C460.884,308.6 458.735,305.559 455.074,303.205C456.954,299.793 458.667,295.622 460.485,291.924C455.972,293.779 453.851,295.162 449.689,296.492Z" style="fill:none;stroke:rgb(69,50,72);stroke-width:2px;"/>
        <path d="M436.447,319.141C436.522,317.928 436.539,316.574 436.613,315.36C435.858,316.466 435.089,317.435 434.334,318.54C432.576,318.107 430.937,317.717 429.18,317.284C430.471,318.533 431.668,319.878 432.758,321.306C432.475,322.383 431.224,323.5 430.928,324.966C432.163,324.536 433.583,323.353 434.426,322.573C435.157,324.285 435.752,325.67 437.003,327.048C437.065,325.409 437.112,323.987 436.54,322.427C437.898,321.821 439.382,320.945 440.788,320.238C438.985,319.763 438.021,319.695 436.447,319.141Z" style="fill:none;stroke:rgb(69,50,72);stroke-width:1px;"/>
        <path d="M447.76,443.296C450.563,447.616 453.443,452.573 456.247,456.894C451.16,454.389 446.304,452.419 441.217,449.914C435.634,455.171 430.403,460.024 424.819,465.281C426.981,457.987 428.596,450.53 429.645,442.995C426.356,439.612 419.414,438.097 415.269,433.307C420.721,432.317 428.422,433.725 433.154,434.847C432.286,427.01 431.598,420.663 433.339,412.974C436.984,418.889 440.118,424.034 441.257,430.983C447.531,430.387 454.825,430.526 461.485,430.206C455.827,435.715 452.41,437.974 447.76,443.296Z" style="fill:none;stroke:rgb(69,50,72);stroke-width:2px;"/>
        <path d="M405.616,448.387C407.466,449.057 409.485,449.902 411.335,450.572C409.209,450.981 407.275,451.501 405.148,451.911C404.66,454.799 404.186,457.483 403.697,460.371C402.674,457.651 401.446,455.008 400.029,452.472C398.248,452.199 395.784,453.338 393.417,452.835C394.85,451.276 397.52,449.93 399.22,449.181C397.148,446.994 395.476,445.22 394.233,442.476C396.707,443.437 398.848,444.282 400.797,446.136C402.57,444.508 404.824,442.869 406.778,441.236C406.325,444.218 405.806,445.693 405.616,448.387Z" style="fill:none;stroke:rgb(69,50,72);stroke-width:1px;"/>
        <path d="M363.127,442.683C363.771,441.651 364.545,440.541 365.189,439.51C365.161,440.848 365.224,442.084 365.195,443.422C366.878,444.092 368.438,444.727 370.12,445.396C368.344,445.662 366.587,446.061 364.87,446.589C364.475,447.63 364.844,449.267 364.232,450.631C363.477,449.563 363.01,447.775 362.776,446.65C361.186,447.618 359.897,448.399 358.079,448.794C358.98,447.424 359.769,446.24 361.142,445.303C360.388,444.02 359.689,442.445 358.956,441.053C360.7,441.713 361.524,442.219 363.127,442.683Z" style="fill:none;stroke:rgb(69,50,72);stroke-width:1px;"/>
        <path d="M250.959,417.251C254.68,420.812 258.621,424.976 262.342,428.536C256.815,427.267 251.637,426.465 246.111,425.195C241.884,431.594 237.908,437.519 233.681,443.918C234.11,436.322 233.969,428.694 233.259,421.119C229.282,418.581 222.177,418.701 217.042,414.991C222.121,412.776 229.939,412.378 234.803,412.382C232.159,404.955 230.031,398.936 229.96,391.052C234.866,395.972 239.098,400.259 241.803,406.762C247.772,404.74 254.903,403.201 261.311,401.359C257.07,408.02 254.263,411.003 250.959,417.251Z" style="fill:none;stroke:rgb(69,50,72);stroke-width:2px;"/>
        <path d="M201.692,427.338C203.646,427.564 205.807,427.924 207.761,428.151C205.785,429.038 204.022,429.988 202.047,430.875C202.234,433.799 202.389,436.52 202.577,439.443C200.957,437.03 199.155,434.74 197.192,432.597C195.396,432.74 193.26,434.415 190.841,434.469C191.877,432.623 194.166,430.699 195.649,429.579C193.131,427.927 191.096,426.584 189.256,424.199C191.885,424.566 194.162,424.897 196.485,426.254C197.837,424.262 199.654,422.149 201.182,420.111C201.425,423.118 201.258,424.674 201.692,427.338Z" style="fill:none;stroke:rgb(69,50,72);stroke-width:1px;"/>
        <path d="M362.205,167.911C361.375,177.036 353.471,185.008 344.353,185.916C335.236,186.824 325.914,180.568 323.3,171.787C329.697,176.022 339.418,173.892 343.457,167.369C347.496,160.846 345.071,151.194 338.429,147.355C338.885,147.619 342.588,146.884 343.456,146.929C344.766,146.998 346.217,147.021 347.516,147.202C350.31,147.59 352.656,148.906 354.819,150.72C359.764,154.869 362.796,161.423 362.205,167.911Z" style="fill:none;stroke:rgb(69,50,72);stroke-width:2px;"/>
        <path d="M344.56,185.173C341.969,184.708 340.417,181.431 341.519,179.041C342.621,176.651 345.881,175.646 348.241,176.811C350.602,177.975 351.807,180.957 351.14,183.503" style="fill:none;stroke:rgb(69,50,72);stroke-width:1px;"/>
        <path d="M354.505,175.999C356.104,175.679 356.906,173.42 355.866,172.164C354.826,170.908 352.457,171.273 351.845,172.785C351.231,174.296 352.678,176.208 354.299,176.031" style="fill:none;stroke:rgb(69,50,72);stroke-width:1px;"/>
        <path d="M355.089,151.705C354.277,151.71 353.596,152.526 353.652,153.336C353.709,154.146 354.414,154.834 355.216,154.963C356.018,155.093 356.855,154.711 357.367,154.081" style="fill:none;stroke:rgb(69,50,72);stroke-width:1px;"/>
        <path d="M358.395,155.611C357.793,155.766 357.403,156.482 357.602,157.071C357.799,157.661 358.541,157.998 359.114,157.758" style="fill:none;stroke:rgb(69,50,72);stroke-width:1px;"/>
        <path d="M357.887,163.673C358.424,162.87 358.761,161.327 357.861,160.697C357.189,160.227 356.159,160.217 355.41,160.467C353.669,161.049 353.178,163.156 354.807,164.251C355.796,164.916 357.214,164.678 357.887,163.673Z" style="fill:none;stroke:rgb(69,50,72);stroke-width:1px;"/>
        <path d="M362.112,166.098C361.551,165.635 360.64,165.703 360.124,166.217C359.608,166.731 359.525,167.607 359.898,168.232C360.271,168.857 361.051,169.197 361.77,169.091" style="fill:none;stroke:rgb(69,50,72);stroke-width:1px;"/>
        <path d="M354.445,169.238C354.884,169.248 355.288,168.994 355.6,168.685C355.966,168.323 356.257,167.787 356.075,167.305C355.928,166.914 355.485,166.679 355.067,166.706C354.649,166.733 354.27,166.987 354.016,167.319C353.54,167.941 353.288,169.212 354.445,169.238Z" style="fill:none;stroke:rgb(69,50,72);stroke-width:1px;"/>
        <path d="M335.631,182.394C336.171,182.795 336.893,182.986 337.535,182.789C338.179,182.591 338.693,181.957 338.648,181.285C338.616,180.804 338.311,180.366 337.907,180.102C337.504,179.837 337.014,179.731 336.531,179.721C334.641,179.684 334.166,181.306 335.631,182.394Z" style="fill:none;stroke:rgb(69,50,72);stroke-width:1px;"/>
        <path d="M282.596,368.663C275.128,370.309 283.676,361.886 285.036,360.573C286.919,358.756 288.637,356.546 288.952,353.948C283.989,356.316 279.524,359.722 275.927,363.882C275.342,364.559 274.762,365.27 273.987,365.719C273.212,366.167 272.18,366.297 271.443,365.784C269.562,364.466 272.984,360.921 272.748,359.474C272.664,358.966 270.197,360.844 269.937,361.06C265.984,364.354 262.982,368.918 261.277,373.754C260.005,377.362 260.271,382.124 265.004,382.593C270.773,383.164 277.741,377.948 281.879,374.448C283.452,373.118 284.898,371.62 286.264,370.079C287.395,368.802 288.726,367.379 289.52,365.872C287.126,366.494 285.064,368.118 282.596,368.663Z" style="fill:none;stroke:rgb(69,50,72);stroke-width:1px;"/>
        <path d="M306.058,361.974C301.138,367.4 295.958,372.66 289.961,376.867C283.964,381.074 277.076,384.21 269.792,384.987C266.291,385.361 262.43,385.072 259.78,382.754C252.448,376.339 258.989,364.477 263.675,358.423C267.862,353.013 272.766,348.145 279.165,345.726C278.784,348.333 277.682,350.634 277.13,353.655C281.178,347.97 286.757,343.496 292.704,339.844C298.651,336.191 305.055,333.353 311.436,330.527C310.926,331.984 310.371,333.457 309.861,334.913C315.74,330.208 322.07,326.203 328.745,322.719C320.117,333.368 310.534,343.354 299.733,351.793C301.759,351.233 303.632,350.577 305.657,350.019C302.81,355.759 298.758,361.298 294.086,365.686C298.397,364.829 302.291,364.239 306.058,361.974Z" style="fill:none;stroke:rgb(69,50,72);stroke-width:2px;"/>
        <path d="M117.801,67.561C122.416,68.579 117.133,63.373 116.293,62.561C115.129,61.438 114.067,60.073 113.872,58.467C116.939,59.931 119.699,62.036 121.922,64.606C122.284,65.025 122.643,65.465 123.122,65.742C123.601,66.019 124.239,66.1 124.693,65.783C125.856,64.968 123.741,62.777 123.887,61.882C123.939,61.569 125.464,62.729 125.624,62.862C128.067,64.899 129.922,67.719 130.977,70.708C131.763,72.938 131.598,75.881 128.673,76.171C125.107,76.524 120.802,73.301 118.244,71.137C117.272,70.315 116.377,69.39 115.534,68.437C114.834,67.647 114.012,66.768 113.521,65.837C115.001,66.221 116.275,67.225 117.801,67.561Z" style="fill:none;stroke:rgb(69,50,72);stroke-width:1px;"/>
        <path d="M103.3,63.427C106.341,66.782 109.542,70.032 113.249,72.633C116.955,75.233 121.212,77.17 125.714,77.651C127.878,77.882 130.265,77.704 131.902,76.27C136.433,72.306 132.391,64.974 129.494,61.233C126.907,57.889 123.876,54.881 119.921,53.385C120.157,54.997 120.838,56.419 121.179,58.286C118.678,54.772 115.229,52.007 111.553,49.75C107.878,47.493 103.92,45.739 99.976,43.992C100.292,44.893 100.635,45.803 100.95,46.703C97.316,43.795 93.403,41.32 89.278,39.166C94.61,45.748 100.534,51.92 107.209,57.135C105.957,56.79 104.799,56.384 103.548,56.039C105.308,59.586 107.812,63.01 110.699,65.722C108.035,65.192 105.628,64.828 103.3,63.427Z" style="fill:none;stroke:rgb(69,50,72);stroke-width:2px;"/>
        <path d="M158.77,447.859C157.658,447.759 156.545,447.459 155.501,447.855C154.066,443.404 149.707,439.62 145.074,438.981C145.237,438.37 145.175,437.851 145.338,437.239C141.259,434.705 136.038,434.149 131.487,435.68C131.408,436.984 131.072,438.067 130.993,439.372C127.536,440.143 124.356,441.925 122.206,444.738C121.797,444.454 121.388,444.009 120.979,443.726C119.225,444.521 117.832,446.145 117.072,447.915C117.6,448.324 118.128,448.734 118.656,449.144C115.333,451.509 113.635,456.144 114.351,460.16L113.902,460.626C112.918,461.061 112.227,461.519 111.243,461.954C111.804,463.583 112.874,464.489 113.805,465.939C114.657,465.563 115.933,464.948 116.785,464.573C117.703,465.695 118.471,466.692 119.39,467.815C118.575,468.346 117.929,468.811 117.114,469.342C118.969,473.15 122.428,476.062 126.37,477.613C126.451,477.328 126.77,476.811 126.851,476.526C130.259,478.498 134.414,479.85 138.35,479.936C138.31,480.466 138.386,480.851 138.346,481.38C140.523,481.44 142.724,481.499 144.859,481.068C146.995,480.638 149.187,479.414 150.575,477.735C150.168,477.287 150.037,476.621 149.63,476.173C152.327,472.864 153.764,468.554 153.593,464.289L153.637,463.527C154.656,463.731 155.783,463.657 156.802,463.861C159.083,458.911 159.806,453.21 158.77,447.859Z" style="fill:none;stroke:rgb(69,50,72);stroke-width:2px;"/>
        <path d="M143.252,438.176C140.319,436.93 136.995,436.623 133.883,437.31C136.634,439.452 140.126,439.719 143.252,438.176Z" style="fill:none;stroke:rgb(69,50,72);stroke-width:1px;"/>
        <path d="M120.764,446.435C120.174,446.545 119.682,447.057 119.595,447.65C119.993,447.832 120.359,447.915 120.712,447.657C121.066,447.4 120.814,446.869 120.764,446.435Z" style="fill:none;stroke:rgb(69,50,72);stroke-width:1px;"/>
        <path d="M132.408,443.775C131.984,443.298 131.31,443.102 130.673,443.129C130.035,443.156 129.423,443.381 128.836,443.629C128.104,443.937 127.382,444.293 126.789,444.819C126.196,445.346 125.739,446.063 125.667,446.853C128.246,447.148 130.991,445.952 132.408,443.775Z" style="fill:none;stroke:rgb(69,50,72);stroke-width:1px;"/>
        <path d="M157.007,450.518C157.331,454.167 156.719,457.896 155.248,461.253C153.399,458.603 153.06,455.045 154.448,452.127C154.887,451.204 156.01,450.739 157.007,450.518Z" style="fill:none;stroke:rgb(69,50,72);stroke-width:1px;"/>
        <path d="M147.069,476.029C146.537,477.22 145.55,478.199 144.355,478.723C143.161,479.246 141.771,479.308 140.536,478.892C142.396,477.212 144.582,476.338 147.069,476.029Z" style="fill:none;stroke:rgb(69,50,72);stroke-width:1px;"/>
        <path d="M147.223,473.322C147.039,473.246 146.932,473.043 146.918,472.845C146.905,472.646 146.968,472.451 147.04,472.265C147.382,471.378 147.942,470.575 148.656,469.947C148.729,470.915 148.603,471.904 148.182,472.779C148.04,473.075 147.527,473.448 147.223,473.322Z" style="fill:none;stroke:rgb(69,50,72);stroke-width:1px;"/>
        <path d="M126.794,474.482C124.099,473.854 121.714,472.005 120.435,469.551C123.238,469.593 125.594,471.949 126.794,474.482Z" style="fill:none;stroke:rgb(69,50,72);stroke-width:1px;"/>
        <path d="M130.906,475.143C130.257,475.136 129.614,474.888 129.129,474.458C128.644,474.027 128.321,473.419 128.235,472.775C129.656,472.918 130.399,473.809 130.906,475.143Z" style="fill:none;stroke:rgb(69,50,72);stroke-width:1px;"/>
        <path d="M122.55,462.522C121.285,461.471 120.437,459.932 120.222,458.302C120.007,456.671 120.428,454.965 121.377,453.622C123.056,456.394 123.41,459.397 122.55,462.522Z" style="fill:none;stroke:rgb(69,50,72);stroke-width:1px;"/>
        <path d="M126.613,465.021C125.823,465.033 125.156,464.348 124.94,463.588C124.724,462.828 124.862,462.017 125.041,461.247C126.239,462.218 126.77,463.487 126.613,465.021Z" style="fill:none;stroke:rgb(69,50,72);stroke-width:1px;"/>
        <path d="M142.051,444.94C144.222,444.885 146.494,445.323 148.19,446.678C150.949,448.883 151.473,453.129 150.01,456.343C148.173,460.382 143.464,462.895 139.086,462.176C135.138,461.526 129.866,457.095 130.698,452.603C131.583,447.832 137.771,445.05 142.051,444.94Z" style="fill:none;stroke:rgb(69,50,72);stroke-width:1px;"/>
        <path d="M322.665,443.188C322.541,442.186 322.594,441.145 322.044,440.297C325.705,438.18 328.217,433.603 327.897,429.386C328.469,429.413 328.917,429.259 329.488,429.286C330.95,425.197 330.444,420.476 328.223,416.744C327.055,416.924 326.032,416.833 324.864,417.013C323.523,414.103 321.341,411.633 318.442,410.269C318.616,409.853 318.932,409.406 319.104,408.991C318.065,407.593 316.365,406.67 314.654,406.337C314.394,406.882 314.133,407.427 313.871,407.972C311.145,405.485 306.725,404.87 303.311,406.269L302.813,405.962C302.241,405.175 301.704,404.651 301.132,403.864C299.799,404.671 299.201,405.79 298.098,406.89C298.592,407.571 299.38,408.581 299.874,409.263C299.057,410.289 298.322,411.158 297.505,412.185C296.881,411.566 296.345,411.084 295.721,410.465C292.708,412.832 290.795,416.445 290.176,420.226C290.444,420.243 290.961,420.426 291.229,420.443C290.137,423.833 289.734,427.764 290.41,431.26C289.934,431.325 289.608,431.467 289.133,431.532C289.495,433.469 289.863,435.425 290.651,437.23C291.44,439.036 292.939,440.74 294.689,441.647C295.008,441.201 295.572,440.959 295.891,440.513C299.33,442.266 303.414,442.714 307.151,441.748L307.834,441.642C307.849,442.581 308.128,443.563 308.144,444.503C312.954,445.574 318.132,445.125 322.665,443.188Z" style="fill:none;stroke:rgb(69,50,72);stroke-width:2px;"/>
        <path d="M328.263,427.621C328.804,424.79 328.44,421.794 327.239,419.174C325.87,422.015 326.301,425.152 328.263,427.621Z" style="fill:none;stroke:rgb(69,50,72);stroke-width:1px;"/>
        <path d="M316.668,409.318C316.458,408.817 315.912,408.48 315.37,408.517C315.286,408.903 315.282,409.242 315.577,409.506C315.872,409.77 316.294,409.445 316.668,409.318Z" style="fill:none;stroke:rgb(69,50,72);stroke-width:1px;"/>
        <path d="M321.242,419.103C321.583,418.639 321.628,418.005 321.481,417.446C321.336,416.888 321.02,416.391 320.689,415.918C320.277,415.331 319.824,414.76 319.246,414.336C318.668,413.912 317.946,413.645 317.234,413.732C317.466,416.069 319.048,418.267 321.242,419.103Z" style="fill:none;stroke:rgb(69,50,72);stroke-width:1px;"/>
        <path d="M319.978,442.137C316.813,443.119 313.4,443.291 310.152,442.632C312.142,440.491 315.223,439.512 318.067,440.182C318.966,440.394 319.592,441.298 319.978,442.137Z" style="fill:none;stroke:rgb(69,50,72);stroke-width:1px;"/>
        <path d="M295.527,438.223C294.374,437.978 293.319,437.293 292.629,436.337C291.938,435.381 291.619,434.164 291.751,432.993C293.591,434.316 294.78,436.082 295.527,438.223Z" style="fill:none;stroke:rgb(69,50,72);stroke-width:1px;"/>
        <path d="M297.95,437.841C297.982,437.664 298.142,437.531 298.314,437.481C298.487,437.431 298.672,437.449 298.85,437.478C299.7,437.61 300.516,437.952 301.207,438.464C300.366,438.713 299.468,438.79 298.614,438.585C298.324,438.516 297.896,438.134 297.95,437.841Z" style="fill:none;stroke:rgb(69,50,72);stroke-width:1px;"/>
        <path d="M293.024,420.004C293.065,417.501 294.245,415.039 296.171,413.44C296.669,415.927 295.035,418.459 293.024,420.004Z" style="fill:none;stroke:rgb(69,50,72);stroke-width:1px;"/>
        <path d="M293.227,423.765C293.108,423.19 293.205,422.574 293.492,422.062C293.78,421.552 294.257,421.149 294.809,420.952C294.954,422.234 294.309,423.062 293.227,423.765Z" style="fill:none;stroke:rgb(69,50,72);stroke-width:1px;"/>
        <path d="M302.788,413.968C303.476,412.649 304.674,411.605 306.074,411.104C307.475,410.603 309.063,410.65 310.432,411.232C308.302,413.245 305.714,414.132 302.788,413.968Z" style="fill:none;stroke:rgb(69,50,72);stroke-width:1px;"/>
        <path d="M301.353,418.037C301.192,417.341 301.671,416.621 302.302,416.285C302.932,415.949 303.676,415.915 304.39,415.927C303.761,417.171 302.739,417.883 301.353,418.037Z" style="fill:none;stroke:rgb(69,50,72);stroke-width:1px;"/>
        <path d="M322.053,427.851C322.516,429.759 322.563,431.852 321.688,433.609C320.267,436.469 316.612,437.743 313.492,437.063C309.571,436.21 306.45,432.528 306.251,428.52C306.071,424.906 308.982,419.399 313.111,419.277C317.498,419.148 321.139,424.088 322.053,427.851Z" style="fill:none;stroke:rgb(69,50,72);stroke-width:1px;"/>
        <path d="M37.383,348.984C38.384,348.488 39.489,348.162 40.172,347.278C43.721,350.323 49.416,351.27 53.699,349.394C53.88,350 54.205,350.41 54.385,351.017C59.187,351.046 63.929,348.79 67.008,345.106C66.394,343.953 66.114,342.853 65.5,341.701C68.044,339.236 69.823,336.056 70.186,332.532C70.683,332.561 71.264,332.727 71.761,332.755C72.841,331.159 73.18,329.048 72.902,327.141C72.238,327.067 71.574,326.995 70.909,326.922C72.506,323.168 71.531,318.329 68.822,315.279L68.96,314.648C69.572,313.763 69.922,313.012 70.533,312.126C69.204,311.03 67.817,310.816 66.266,310.067C65.736,310.833 64.971,312.024 64.44,312.79C63.07,312.312 61.895,311.864 60.524,311.387C60.942,310.509 61.249,309.773 61.667,308.895C58.094,306.619 53.624,305.944 49.453,306.683C49.532,306.969 49.531,307.575 49.61,307.861C45.674,307.961 41.426,308.98 38.025,310.965C37.783,310.491 37.516,310.204 37.274,309.731C35.386,310.817 33.479,311.918 31.884,313.401C30.288,314.885 29.059,317.073 28.753,319.23C29.335,319.399 29.794,319.899 30.376,320.068C29.806,324.299 30.834,328.725 33.209,332.271L33.569,332.943C32.594,333.303 31.672,333.954 30.697,334.313C31.34,339.726 33.703,344.964 37.383,348.984Z" style="fill:none;stroke:rgb(69,50,72);stroke-width:2px;"/>
        <path d="M55.674,349.129C58.826,348.657 61.82,347.182 64.113,344.969C60.648,344.581 57.532,346.179 55.674,349.129Z" style="fill:none;stroke:rgb(69,50,72);stroke-width:1px;"/>
        <path d="M70.529,330.333C70.974,329.931 71.126,329.237 70.89,328.686C70.456,328.738 70.1,328.859 69.933,329.264C69.767,329.668 70.259,329.989 70.529,330.333Z" style="fill:none;stroke:rgb(69,50,72);stroke-width:1px;"/>
        <path d="M61.992,338.686C62.603,338.872 63.28,338.686 63.809,338.33C64.338,337.974 64.742,337.463 65.114,336.943C65.575,336.299 66.006,335.618 66.236,334.859C66.467,334.101 66.481,333.25 66.13,332.539C63.776,333.636 62.062,336.09 61.992,338.686Z" style="fill:none;stroke:rgb(69,50,72);stroke-width:1px;"/>
        <path d="M37.497,345.797C35.313,342.853 33.885,339.355 33.385,335.725C36.346,337.018 38.495,339.874 38.837,343.087C38.945,344.103 38.231,345.086 37.497,345.797Z" style="fill:none;stroke:rgb(69,50,72);stroke-width:1px;"/>
        <path d="M32.633,318.853C32.465,317.56 32.795,316.208 33.54,315.138C34.284,314.067 35.437,313.289 36.708,312.997C36,315.401 34.593,317.289 32.633,318.853Z" style="fill:none;stroke:rgb(69,50,72);stroke-width:1px;"/>
        <path d="M33.918,321.24C34.114,321.209 34.312,321.327 34.427,321.489C34.542,321.651 34.59,321.851 34.626,322.046C34.798,322.981 34.741,323.958 34.46,324.867C33.892,324.08 33.483,323.171 33.384,322.205C33.35,321.878 33.593,321.292 33.918,321.24Z" style="fill:none;stroke:rgb(69,50,72);stroke-width:1px;"/>
        <path d="M50.727,309.573C53.353,308.7 56.353,309.03 58.727,310.454C56.314,311.884 53.075,311.105 50.727,309.573Z" style="fill:none;stroke:rgb(69,50,72);stroke-width:1px;"/>
        <path d="M46.877,311.16C47.433,310.827 48.111,310.702 48.75,310.815C49.388,310.929 49.982,311.278 50.39,311.782C49.106,312.403 48.005,312.032 46.877,311.16Z" style="fill:none;stroke:rgb(69,50,72);stroke-width:1px;"/>
        <path d="M60.597,317.552C62.225,317.787 63.752,318.655 64.788,319.933C65.823,321.211 66.356,322.885 66.249,324.526C63.369,323.04 61.498,320.664 60.597,317.552Z" style="fill:none;stroke:rgb(69,50,72);stroke-width:1px;"/>
        <path d="M55.827,317.544C56.494,317.122 57.421,317.357 58.002,317.892C58.583,318.427 58.89,319.19 59.14,319.94C57.611,319.739 56.495,318.934 55.827,317.544Z" style="fill:none;stroke:rgb(69,50,72);stroke-width:1px;"/>
        <path d="M53.162,342.733C51.34,343.915 49.174,344.729 47.02,344.461C43.516,344.023 40.85,340.677 40.417,337.173C39.872,332.77 42.572,328.165 46.68,326.49C50.386,324.979 57.197,326.002 58.835,330.267C60.575,334.797 56.753,340.403 53.162,342.733Z" style="fill:none;stroke:rgb(69,50,72);stroke-width:1px;"/>
        <path d="M425.572,29.811C425.67,30.924 425.57,32.072 426.145,33.03C422.017,35.227 419.06,40.185 419.248,44.857C418.617,44.805 418.116,44.957 417.486,44.905C415.71,49.366 416.083,54.603 418.392,58.814C419.689,58.662 420.814,58.802 422.112,58.649C423.48,61.916 425.795,64.732 428.943,66.354C428.736,66.806 428.37,67.287 428.162,67.739C429.255,69.326 431.098,70.412 432.975,70.848C433.285,70.255 433.595,69.664 433.905,69.071C436.818,71.926 441.681,72.781 445.508,71.369L446.045,71.728C446.646,72.62 447.22,73.219 447.821,74.111C449.325,73.272 450.029,72.059 451.293,70.887C450.773,70.115 449.942,68.968 449.423,68.195C450.366,67.093 451.212,66.162 452.155,65.06C452.821,65.768 453.394,66.322 454.06,67.03C457.481,64.533 459.738,60.616 460.57,56.462C460.275,56.433 459.71,56.21 459.415,56.18C460.756,52.478 461.354,48.15 460.746,44.26C461.274,44.207 461.64,44.063 462.168,44.01C461.844,41.855 461.514,39.68 460.714,37.653C459.913,35.627 458.323,33.685 456.426,32.614C456.056,33.094 455.423,33.34 455.054,33.82C451.322,31.748 446.826,31.092 442.658,32.012L441.9,32.103C441.921,31.065 441.65,29.968 441.671,28.93C436.396,27.556 430.657,27.849 425.572,29.811Z" style="fill:none;stroke:rgb(69,50,72);stroke-width:2px;"/>
        <path d="M418.774,46.793C418.065,49.9 418.349,53.226 419.573,56.167C421.198,53.082 420.845,49.598 418.774,46.793Z" style="fill:none;stroke:rgb(69,50,72);stroke-width:1px;"/>
        <path d="M430.867,67.474C431.08,68.035 431.67,68.429 432.27,68.411C432.378,67.987 432.395,67.612 432.08,67.31C431.765,67.007 431.286,67.348 430.867,67.474Z" style="fill:none;stroke:rgb(69,50,72);stroke-width:1px;"/>
        <path d="M426.198,56.481C425.803,56.981 425.728,57.68 425.867,58.303C426.007,58.925 426.336,59.488 426.684,60.023C427.115,60.687 427.593,61.337 428.216,61.828C428.838,62.319 429.625,62.642 430.415,62.574C430.251,59.982 428.59,57.492 426.198,56.481Z" style="fill:none;stroke:rgb(69,50,72);stroke-width:1px;"/>
        <path d="M428.5,31.079C432.036,30.117 435.814,30.061 439.377,30.918C437.095,33.205 433.652,34.166 430.535,33.313C429.55,33.044 428.895,32.02 428.5,31.079Z" style="fill:none;stroke:rgb(69,50,72);stroke-width:1px;"/>
        <path d="M455.364,36.365C456.63,36.68 457.768,37.479 458.493,38.562C459.219,39.646 459.523,41.003 459.332,42.293C457.351,40.758 456.106,38.759 455.364,36.365Z" style="fill:none;stroke:rgb(69,50,72);stroke-width:1px;"/>
        <path d="M452.673,36.691C452.63,36.886 452.448,37.027 452.256,37.075C452.062,37.123 451.859,37.096 451.664,37.058C450.73,36.877 449.842,36.468 449.098,35.875C450.037,35.633 451.033,35.583 451.968,35.843C452.285,35.931 452.743,36.37 452.673,36.691Z" style="fill:none;stroke:rgb(69,50,72);stroke-width:1px;"/>
        <path d="M457.414,56.596C457.27,59.36 455.869,62.033 453.68,63.725C453.227,60.958 455.132,58.224 457.414,56.596Z" style="fill:none;stroke:rgb(69,50,72);stroke-width:1px;"/>
        <path d="M457.339,52.432C457.446,53.072 457.315,53.748 456.978,54.302C456.64,54.855 456.098,55.281 455.479,55.478C455.369,54.055 456.115,53.165 457.339,52.432Z" style="fill:none;stroke:rgb(69,50,72);stroke-width:1px;"/>
        <path d="M446.389,62.882C445.576,64.311 444.211,65.418 442.644,65.916C441.077,66.415 439.323,66.301 437.834,65.604C440.267,63.463 443.161,62.586 446.389,62.882Z" style="fill:none;stroke:rgb(69,50,72);stroke-width:1px;"/>
        <path d="M448.133,58.441C448.283,59.217 447.727,59.994 447.017,60.34C446.307,60.687 445.483,60.695 444.694,60.654C445.438,59.304 446.595,58.558 448.133,58.441Z" style="fill:none;stroke:rgb(69,50,72);stroke-width:1px;"/>
        <path d="M425.645,46.783C425.209,44.656 425.239,42.342 426.274,40.434C427.958,37.33 432.046,36.066 435.468,36.939C439.767,38.037 443.07,42.228 443.134,46.665C443.19,50.666 439.757,56.637 435.189,56.608C430.336,56.579 426.508,50.977 425.645,46.783Z" style="fill:none;stroke:rgb(69,50,72);stroke-width:1px;"/>
        <path d="M260.104,465.466C259.672,465.908 259.301,466.396 258.996,466.919L258.53,466.678C258.463,466.38 258.182,466.175 257.872,466.211C257.54,466.25 257.303,466.55 257.342,466.881C257.381,467.212 257.682,467.449 258.013,467.41C258.078,467.402 258.14,467.384 258.196,467.357L258.647,467.592C258.396,468.146 258.215,468.73 258.108,469.336L258.854,469.467C259.084,468.161 259.704,466.961 260.646,465.995L260.104,465.466Z" style="fill:rgb(17,33,41);fill-rule:nonzero;"/>
        <path d="M265.592,463.163C265.421,463.163 265.251,463.17 265.082,463.181L265.009,462.555C265.196,462.405 265.305,462.165 265.274,461.91C265.229,461.517 264.872,461.235 264.479,461.281C264.086,461.328 263.805,461.684 263.851,462.077C263.881,462.331 264.04,462.538 264.256,462.641L264.329,463.265C263.615,463.381 262.926,463.597 262.27,463.911L262.597,464.595C263.53,464.147 264.538,463.922 265.592,463.922C266.088,463.922 266.585,463.975 267.066,464.079L267.228,463.338C266.692,463.223 266.143,463.163 265.592,463.163Z" style="fill:rgb(17,33,41);fill-rule:nonzero;"/>
        <path d="M272.194,465.711C272.525,465.67 272.761,465.369 272.72,465.038C272.68,464.707 272.378,464.473 272.048,464.513C271.738,464.551 271.513,464.816 271.518,465.121L271.102,465.484C270.684,465.055 270.212,464.672 269.693,464.346L269.29,464.986C270.424,465.701 271.311,466.713 271.854,467.912L272.544,467.6C272.293,467.045 271.977,466.527 271.602,466.055L272.004,465.703C272.064,465.716 272.129,465.719 272.194,465.711Z" style="fill:rgb(17,33,41);fill-rule:nonzero;"/>
        <path d="M265.044,473.372C264.658,473.396 264.27,473.406 263.887,473.406C263.007,473.406 262.154,473.346 261.409,473.228C261.019,473.165 260.562,473.072 260.139,472.936C261.185,474.796 263.208,476.061 265.527,476.061C268.383,476.061 270.789,474.145 271.477,471.557C270.795,472.006 269.971,472.382 269.018,472.68C267.839,473.047 266.464,473.286 265.044,473.372Z" style="fill:rgb(17,33,41);fill-rule:nonzero;"/>
        <path d="M268.17,470.286C267.42,470.286 266.81,469.676 266.81,468.926C266.81,468.176 267.42,467.565 268.17,467.565C268.92,467.565 269.53,468.176 269.53,468.926C269.53,469.676 268.92,470.286 268.17,470.286ZM263.433,471.194C262.412,471.194 261.583,470.364 261.583,469.345C261.583,468.324 262.412,467.495 263.433,467.495C264.452,467.495 265.282,468.324 265.282,469.345C265.282,470.364 264.452,471.194 263.433,471.194ZM265.592,464.68C262.239,464.68 259.513,467.346 259.513,470.623C259.513,471.049 259.558,471.472 259.648,471.885C260.323,472.367 262.355,472.774 264.997,472.615C267.876,472.442 270.294,471.658 271.669,470.457C271.664,470.262 271.648,470.066 271.624,469.875C271.244,466.913 268.65,464.68 265.592,464.68Z" style="fill:rgb(17,33,41);fill-rule:nonzero;"/>
        <path d="M281.596,466.547C281.301,466.431 280.79,466.238 280.213,466.31C279.662,466.378 279.369,466.649 279.369,467.316L279.369,468.182L281.597,468.182L281.597,469.899L279.369,469.899L279.369,475.354L277.438,475.354L277.438,469.899L276.098,469.899L276.098,468.182L277.438,468.182L277.438,467.294C277.438,465.613 278.333,464.511 280.006,464.511C280.648,464.511 281.163,464.633 281.596,464.819L281.596,466.547Z" style="fill:rgb(17,33,41);fill-rule:nonzero;"/>
        <path d="M286.298,469.879C286.121,469.849 285.94,469.832 285.771,469.832C284.876,469.832 284.262,470.38 284.262,471.446L284.262,475.354L282.33,475.354L282.33,468.182L284.203,468.182L284.203,468.967C284.654,468.293 285.343,467.989 286.224,467.989C286.638,467.989 287.071,468.117 287.317,468.326L286.298,469.879Z" style="fill:rgb(17,33,41);fill-rule:nonzero;"/>
        <path d="M288.851,471.091L292.026,471.091C291.849,470.173 291.293,469.655 290.464,469.655C289.554,469.655 289.021,470.202 288.851,471.091ZM293.965,471.757C293.965,471.979 293.95,472.245 293.928,472.408L288.844,472.408C289.051,473.444 289.776,473.896 290.687,473.896C291.308,473.896 291.981,473.645 292.5,473.208L293.632,474.451C292.818,475.198 291.781,475.539 290.575,475.539C288.377,475.539 286.853,474.044 286.853,471.786C286.853,469.529 288.333,467.989 290.479,467.989C292.544,467.989 293.958,469.521 293.965,471.757Z" style="fill:rgb(17,33,41);fill-rule:nonzero;"/>
        <path d="M296.504,471.091L299.68,471.091C299.502,470.173 298.946,469.655 298.117,469.655C297.207,469.655 296.674,470.202 296.504,471.091ZM301.618,471.757C301.618,471.979 301.604,472.245 301.581,472.408L296.497,472.408C296.704,473.444 297.429,473.896 298.34,473.896C298.961,473.896 299.635,473.645 300.153,473.208L301.285,474.451C300.471,475.198 299.435,475.539 298.229,475.539C296.03,475.539 294.506,474.044 294.506,471.786C294.506,469.529 295.986,467.989 298.132,467.989C300.197,467.989 301.611,469.521 301.618,471.757Z" style="fill:rgb(17,33,41);fill-rule:nonzero;"/>
        <path d="M304.287,471.765C304.287,472.896 305.035,473.74 306.13,473.74C307.27,473.74 307.98,472.859 307.98,471.765C307.98,470.669 307.27,469.788 306.13,469.788C305.035,469.788 304.287,470.632 304.287,471.765ZM309.964,471.765C309.964,473.918 308.469,475.539 306.493,475.539C305.53,475.539 304.85,475.161 304.384,474.606L304.384,478.314L302.459,478.314L302.459,468.182L304.347,468.182L304.347,468.974C304.813,468.39 305.501,467.989 306.485,467.989C308.469,467.989 309.964,469.61 309.964,471.765Z" style="fill:rgb(17,33,41);fill-rule:nonzero;"/>
        <path d="M312.809,475.354L310.877,475.354L310.877,468.182L312.809,468.182L312.809,475.354ZM313.067,465.836C313.067,466.531 312.527,467.064 311.832,467.064C311.136,467.064 310.603,466.531 310.603,465.836C310.603,465.14 311.136,464.593 311.832,464.593C312.527,464.593 313.067,465.14 313.067,465.836Z" style="fill:rgb(17,33,41);fill-rule:nonzero;"/>
        <path d="M316.032,470.735L318.733,468.182L321.103,468.182L317.623,471.557L321.124,475.354L318.748,475.354L316.032,472.452L316.032,475.354L314.101,475.354L314.101,464.696L316.032,464.696L316.032,470.735Z" style="fill:rgb(17,33,41);fill-rule:nonzero;"/>
        <path d="M184.413,473.37L184.413,470.162C184.017,469.547 183.167,469.02 182.289,469.02C180.868,469.02 180.018,470.191 180.018,471.759C180.018,473.326 180.868,474.483 182.289,474.483C183.167,474.483 184.017,473.985 184.413,473.37ZM184.413,475.289L184.413,474.234C183.885,474.952 183.021,475.465 182.025,475.465C180.179,475.465 178.875,474.059 178.875,471.759C178.875,469.503 180.165,468.038 182.025,468.038C182.977,468.038 183.841,468.507 184.413,469.283L184.413,465.519L185.511,465.519L185.511,475.289L184.413,475.289Z" style="fill:rgb(17,33,41);fill-rule:nonzero;"/>
        <path d="M190.403,468.946C188.895,468.946 188.147,470.221 188.089,471.305L192.732,471.305C192.718,470.25 192.015,468.946 190.403,468.946ZM186.932,471.744C186.932,469.693 188.396,468.038 190.418,468.038C192.557,468.038 193.816,469.708 193.816,471.832L193.816,472.11L188.089,472.11C188.177,473.443 189.114,474.557 190.638,474.557C191.443,474.557 192.264,474.234 192.82,473.663L193.348,474.381C192.645,475.084 191.692,475.465 190.535,475.465C188.44,475.465 186.932,473.956 186.932,471.744Z" style="fill:rgb(17,33,41);fill-rule:nonzero;"/>
        <path d="M194.607,474.352L195.178,473.561C195.647,474.103 196.541,474.571 197.507,474.571C198.591,474.571 199.177,474.059 199.177,473.355C199.177,471.642 194.797,472.696 194.797,470.074C194.797,468.976 195.75,468.038 197.434,468.038C198.635,468.038 199.485,468.492 200.056,469.063L199.543,469.825C199.119,469.313 198.342,468.932 197.434,468.932C196.467,468.932 195.867,469.415 195.867,470.045C195.867,471.598 200.246,470.572 200.246,473.326C200.246,474.513 199.294,475.465 197.463,475.465C196.306,475.465 195.325,475.113 194.607,474.352Z" style="fill:rgb(17,33,41);fill-rule:nonzero;"/>
        <path d="M201.667,475.289L201.667,468.214L202.766,468.214L202.766,475.289L201.667,475.289ZM201.477,466.471C201.477,466.061 201.814,465.724 202.209,465.724C202.62,465.724 202.956,466.061 202.956,466.471C202.956,466.881 202.62,467.203 202.209,467.203C201.814,467.203 201.477,466.881 201.477,466.471Z" style="fill:rgb(17,33,41);fill-rule:nonzero;"/>
        <path d="M209.708,473.253L209.708,470.162C209.328,469.547 208.478,469.02 207.6,469.02C206.178,469.02 205.329,470.147 205.329,471.715C205.329,473.268 206.178,474.41 207.6,474.41C208.478,474.41 209.328,473.868 209.708,473.253ZM204.582,477.105L205.139,476.285C205.725,476.988 206.428,477.252 207.438,477.252C208.61,477.252 209.708,476.681 209.708,475.128L209.708,474.117C209.196,474.835 208.332,475.377 207.335,475.377C205.49,475.377 204.187,474 204.187,471.715C204.187,469.444 205.475,468.038 207.335,468.038C208.288,468.038 209.138,468.507 209.708,469.283L209.708,468.214L210.807,468.214L210.807,475.084C210.807,477.428 209.167,478.16 207.438,478.16C206.237,478.16 205.417,477.926 204.582,477.105Z" style="fill:rgb(17,33,41);fill-rule:nonzero;"/>
        <path d="M217.413,475.289L217.413,470.66C217.413,469.415 216.784,469.02 215.832,469.02C214.967,469.02 214.146,469.547 213.737,470.118L213.737,475.289L212.638,475.289L212.638,468.214L213.737,468.214L213.737,469.239C214.235,468.653 215.201,468.038 216.256,468.038C217.735,468.038 218.512,468.785 218.512,470.323L218.512,475.289L217.413,475.289Z" style="fill:rgb(17,33,41);fill-rule:nonzero;"/>
        <path d="M223.404,468.946C221.896,468.946 221.148,470.221 221.09,471.305L225.733,471.305C225.718,470.25 225.015,468.946 223.404,468.946ZM219.933,471.744C219.933,469.693 221.397,468.038 223.419,468.038C225.557,468.038 226.817,469.708 226.817,471.832L226.817,472.11L221.09,472.11C221.178,473.443 222.115,474.557 223.639,474.557C224.444,474.557 225.264,474.234 225.821,473.663L226.349,474.381C225.646,475.084 224.693,475.465 223.536,475.465C221.441,475.465 219.933,473.956 219.933,471.744Z" style="fill:rgb(17,33,41);fill-rule:nonzero;"/>
        <path d="M233.35,473.37L233.35,470.162C232.954,469.547 232.105,469.02 231.226,469.02C229.805,469.02 228.956,470.191 228.956,471.759C228.956,473.326 229.805,474.483 231.226,474.483C232.105,474.483 232.954,473.985 233.35,473.37ZM233.35,475.289L233.35,474.234C232.823,474.952 231.958,475.465 230.962,475.465C229.117,475.465 227.813,474.059 227.813,471.759C227.813,469.503 229.102,468.038 230.962,468.038C231.914,468.038 232.779,468.507 233.35,469.283L233.35,465.519L234.449,465.519L234.449,475.289L233.35,475.289Z" style="fill:rgb(17,33,41);fill-rule:nonzero;"/>
        <path d="M242.9,474.483C244.335,474.483 245.185,473.326 245.185,471.759C245.185,470.191 244.335,469.02 242.9,469.02C242.036,469.02 241.171,469.547 240.791,470.162L240.791,473.37C241.171,473.985 242.036,474.483 242.9,474.483ZM239.692,475.289L239.692,465.519L240.791,465.519L240.791,469.283C241.362,468.507 242.211,468.038 243.178,468.038C245.024,468.038 246.328,469.503 246.328,471.759C246.328,474.059 245.024,475.465 243.178,475.465C242.182,475.465 241.318,474.952 240.791,474.234L240.791,475.289L239.692,475.289Z" style="fill:rgb(17,33,41);fill-rule:nonzero;"/>
        <path d="M247.528,477.062C247.689,477.135 247.954,477.179 248.129,477.179C248.612,477.179 248.935,477.018 249.184,476.432L249.653,475.362L246.693,468.214L247.88,468.214L250.238,474.015L252.582,468.214L253.783,468.214L250.238,476.725C249.813,477.75 249.096,478.146 248.158,478.16C247.924,478.16 247.558,478.116 247.353,478.058L247.528,477.062Z" style="fill:rgb(17,33,41);fill-rule:nonzero;"/>
    </g>
</svg>
